<?xml version="1.0" encoding="utf-8"?>
<!-- Generator: Adobe Illustrator 24.3.0, SVG Export Plug-In . SVG Version: 6.00 Build 0)  -->
<svg version="1.1" id="Layer_1" xmlns="http://www.w3.org/2000/svg" xmlns:xlink="http://www.w3.org/1999/xlink" x="0px" y="0px"
	 viewBox="0 0 1024 1024" style="enable-background:new 0 0 1024 1024;" xml:space="preserve">
<style type="text/css">
	.st0{fill:#F15A29;}
	.st1{fill:#FFFFFF;}
</style>
<rect x="0.2" y="0.11" class="st0" width="1024" height="1024"/>
<g>
	<path class="st1" d="M767.37,392.92c-32.02-41.52-72.98-55.81-88.08-55.65c-0.51,0.01-1-0.16-1.5-0.16H560.44
		c-3.12,0-6.11,1.25-8.31,3.47l-68.54,69.19c-7.32,7.39-2.08,19.93,8.31,19.93h94.15h21.22c46.68,0.57,69.86,9.91,83.31,34.43
		c7.75,14.13,6.95,28.01,6.65,32.33c-3.68,52.6-74.53,84.26-88.82,90.62c-41.62,18.5-79.74,17.13-102.03,16.31
		c-69.97,0-139.95,0-209.92,0.01c-3.12,0-6.1,1.24-8.3,3.45c-19.97,20.11-39.95,40.22-59.92,60.32c-7.33,7.38-2.1,19.95,8.3,19.94
		c95.29-0.02,190.58-0.03,285.88-0.05c38.05-0.72,130.18-8.06,205.33-74.99c25.83-23.01,65.56-58.4,70.76-115.62
		C803.5,441.26,773.22,400.5,767.37,392.92z"/>
	<path class="st1" d="M562.57,542.85c12.53-6.12,28.41-17.61,28.47-35.22c0.03-9.91-7.77-17.49-11.79-21.4
		c-14.25-13.86-32.83-13.94-37.62-13.82H439.16c-3.12,0-6.11,1.25-8.31,3.47l-57.59,58.14c-7.25,7.32-2.19,19.75,8.1,19.93l113.12,2
		C525.23,555.94,551.48,548.26,562.57,542.85z"/>
</g>
</svg>
