<?xml version="1.0" encoding="utf-8"?>
<!-- Generator: Adobe Illustrator 24.3.0, SVG Export Plug-In . SVG Version: 6.00 Build 0)  -->
<svg version="1.1" id="Layer_1" xmlns="http://www.w3.org/2000/svg" xmlns:xlink="http://www.w3.org/1999/xlink" x="0px" y="0px"
	 viewBox="0 0 1024 1024" style="enable-background:new 0 0 1024 1024;" xml:space="preserve">
<style type="text/css">
	.st0{fill:#FFFFFF;}
	.st1{fill:#F15A29;}
</style>
<rect class="st0" width="1024" height="1024"/>
<g>
	<g>
		<path class="st1" d="M118.65,599.76h38.71c28.85,0,44.64,18.73,44.64,41.32c0,27.42-20.16,44.31-45.08,44.31h-38.27V599.76z
			 M139.43,669.29h14.75c16.75,0,25.8-9.44,25.8-27.64c0-15.84-8.28-25.67-25.54-25.88h-15.01V669.29z"/>
		<path class="st1" d="M306.42,642.28c0,23.73-15.83,44.94-46.98,44.94c-29.04,0-45.63-19.85-45.63-44.84
			c0-23.55,17.57-44.44,46.59-44.44C290.31,597.94,306.42,618.93,306.42,642.28z M235.73,642.11c0,16.19,8.21,28.88,24.9,28.88
			c17.24,0,23.89-14.55,23.89-28.47c0-15.17-7.39-28.36-24.72-28.36C243.12,614.16,235.73,627.68,235.73,642.11z"/>
		<path class="st1" d="M344.18,652.39v33h-20.57v-85.63h46.63c19.75,0,31.05,9.74,31.05,24.46c0,11.05-6.43,17.57-14.9,20.25
			c3.51,1.38,12.7,4.75,12.7,20.13v4.27c0,5.88-0.11,12.46,1.08,16.51h-21.33c-1.43-3.77-1.6-8.83-1.6-17.92v-2.81
			c0-8.65-3.17-12.27-15.66-12.27H344.18z M344.18,636.81h21.42c10.09,0,14.46-3.64,14.46-10.86c0-6.77-4.48-10.6-14.28-10.6h-21.6
			V636.81z"/>
		<path class="st1" d="M497.61,652.59c0-14.76,0.11-30.12,0.59-39.61h-0.12c-4.26,15.82-12.3,40.93-22.39,72.41H457.4
			c-7.84-27.6-16.85-56.17-21.39-72.4h-0.12c0.64,9.96,1.42,26.6,1.42,41.19v31.21h-18.72v-85.63h30.03
			c8.6,26.52,16.5,49.78,19.05,61.5h0.12c3.63-13.51,11.36-36.01,19.69-61.5h30.16v85.63h-20.03V652.59z"/>
		<path class="st1" d="M539.92,599.76h38.71c28.85,0,44.64,18.73,44.64,41.32c0,27.42-20.16,44.31-45.08,44.31h-38.27V599.76z
			 M560.7,669.29h14.75c16.75,0,25.8-9.44,25.8-27.64c0-15.84-8.28-25.67-25.54-25.88H560.7V669.29z"/>
		<path class="st1" d="M657.88,665.96l-7.47,19.43h-21.37l34.49-85.63h26.65l36.25,85.63h-22.47l-7.96-19.43H657.88z M690.18,649.3
			c-7.97-19.63-11.85-29.63-13.9-36.17h-0.12c-1.92,6.41-6.46,19.43-12.9,36.17H690.18z"/>
		<path class="st1" d="M749.86,659.73c2.46,7.39,8.37,12.25,22.58,12.25c13.31,0,17.16-4.06,17.16-9.59c0-5.9-3.94-9.23-21.99-12.29
			c-29.72-5.08-35.12-14.73-35.12-26.22c0-17.1,16.46-25.84,36.71-25.84c29.39,0,37.37,15.11,38.34,25.06h-20.81
			c-1.21-4.24-4.06-9.92-18.19-9.92c-9.9,0-14.92,3.15-14.92,8.68c0,4.95,3.53,7.44,19.6,10.32c32.54,5.84,37.63,15.66,37.63,28.08
			c0,14.84-11.65,26.84-40.37,26.84c-26.79,0-38.85-11.95-41.45-27.38H749.86z"/>
		<path class="st1" d="M828.3,599.76h20.78v32.19h39.41v-32.19h20.78v85.63h-20.78V648.5h-39.41v36.89H828.3V599.76z"/>
	</g>
</g>
<g>
	<path class="st1" d="M638.62,337.42c-18.91-24.53-43.11-32.97-52.03-32.87c-0.3,0-0.59-0.1-0.89-0.1h-69.32
		c-1.84,0-3.61,0.74-4.91,2.05l-40.48,40.87c-4.32,4.36-1.23,11.77,4.91,11.77h55.61h12.53c27.57,0.33,41.27,5.85,49.21,20.34
		c4.58,8.35,4.11,16.54,3.93,19.1c-2.18,31.07-44.02,49.77-52.47,53.53c-24.59,10.93-47.1,10.12-60.27,9.63c-41.33,0-82.67,0-124,0
		c-1.84,0-3.61,0.73-4.9,2.04c-11.8,11.88-23.6,23.75-35.39,35.63c-4.33,4.36-1.24,11.78,4.9,11.78
		c56.29-0.01,112.57-0.02,168.86-0.03c22.47-0.43,76.9-4.76,121.29-44.29c15.26-13.59,38.73-34.49,41.8-68.29
		C659.96,365.98,642.07,341.9,638.62,337.42z"/>
	<path class="st1" d="M517.64,425.98c7.4-3.62,16.78-10.4,16.81-20.81c0.02-5.85-4.59-10.33-6.96-12.64
		c-8.42-8.19-19.39-8.24-22.22-8.16h-60.52c-1.84,0-3.61,0.74-4.91,2.05l-34.02,34.34c-4.28,4.32-1.29,11.66,4.79,11.77l66.82,1.18
		C495.59,433.72,511.09,429.18,517.64,425.98z"/>
</g>
</svg>
