<?xml version="1.0" encoding="utf-8"?>
<!-- Generator: Adobe Illustrator 24.3.0, SVG Export Plug-In . SVG Version: 6.00 Build 0)  -->
<svg version="1.1" id="Layer_1" xmlns="http://www.w3.org/2000/svg" xmlns:xlink="http://www.w3.org/1999/xlink" x="0px" y="0px"
	 viewBox="0 0 1024 1024" style="enable-background:new 0 0 1024 1024;" xml:space="preserve">
<style type="text/css">
	.st0{fill:#FFFFFF;}
</style>
<g>
	<path class="st0" d="M835.64,304.24c-39.48-51.2-89.99-68.82-108.61-68.62c-0.62,0.01-1.23-0.2-1.85-0.2H580.47
		c-3.85,0-7.54,1.54-10.25,4.27l-84.51,85.31c-9.02,9.11-2.57,24.58,10.25,24.58h116.09h26.16c57.56,0.7,86.14,12.22,102.72,42.45
		c9.55,17.42,8.57,34.54,8.2,39.87c-4.54,64.87-91.9,103.9-109.53,111.74c-51.32,22.81-98.32,21.12-125.81,20.11
		c-86.28,0-172.57,0.01-258.85,0.01c-3.84,0-7.53,1.53-10.23,4.26c-24.63,24.79-49.26,49.59-73.89,74.38
		c-9.04,9.1-2.59,24.59,10.24,24.59c117.5-0.02,235.01-0.04,352.51-0.06c46.91-0.89,160.53-9.93,253.19-92.47
		c31.85-28.37,80.84-72.01,87.25-142.56C880.19,363.85,842.85,313.59,835.64,304.24z"/>
	<path class="st0" d="M583.1,489.11c15.45-7.55,35.03-21.71,35.1-43.43c0.04-12.22-9.57-21.56-14.53-26.39
		c-17.57-17.09-40.49-17.19-46.39-17.04H430.93c-3.85,0-7.54,1.54-10.25,4.27l-71.02,71.69c-8.94,9.02-2.7,24.35,9.99,24.58
		l139.48,2.47C537.06,505.26,569.42,495.79,583.1,489.11z"/>
</g>
<g>
	<g>
		<path class="st0" d="M167.36,716.34h34.88c26,0,40.23,16.88,40.23,37.23c0,24.7-18.17,39.93-40.62,39.93h-34.48V716.34z
			 M186.09,778.99h13.29c15.09,0,23.25-8.5,23.25-24.91c0-14.28-7.46-23.13-23.01-23.32h-13.53V778.99z"/>
		<path class="st0" d="M336.56,754.65c0,21.39-14.26,40.49-42.33,40.49c-26.17,0-41.12-17.88-41.12-40.41
			c0-21.22,15.83-40.04,41.98-40.04C322.04,714.7,336.56,733.61,336.56,754.65z M272.86,754.5c0,14.59,7.4,26.02,22.43,26.02
			c15.54,0,21.53-13.11,21.53-25.65c0-13.67-6.66-25.55-22.28-25.55C279.52,729.32,272.86,741.5,272.86,754.5z"/>
		<path class="st0" d="M370.59,763.77v29.74h-18.53v-77.16h42.02c17.79,0,27.98,8.78,27.98,22.04c0,9.96-5.79,15.83-13.43,18.25
			c3.16,1.25,11.44,4.28,11.44,18.14v3.85c0,5.29-0.1,11.23,0.97,14.88h-19.22c-1.29-3.4-1.44-7.96-1.44-16.15v-2.53
			c0-7.8-2.86-11.05-14.11-11.05H370.59z M370.59,749.72h19.3c9.09,0,13.03-3.28,13.03-9.78c0-6.1-4.04-9.56-12.87-9.56h-19.46
			V749.72z"/>
		<path class="st0" d="M508.85,763.95c0-13.3,0.1-27.14,0.53-35.69h-0.11c-3.83,14.25-11.09,36.89-20.18,65.25h-16.49
			c-7.07-24.87-15.18-50.62-19.27-65.24h-0.11c0.57,8.97,1.28,23.97,1.28,37.11v28.12h-16.87v-77.16h27.06
			c7.75,23.9,14.87,44.86,17.17,55.42h0.11c3.27-12.17,10.23-32.45,17.74-55.42h27.18v77.16h-18.05V763.95z"/>
		<path class="st0" d="M546.97,716.34h34.88c26,0,40.23,16.88,40.23,37.23c0,24.7-18.17,39.93-40.62,39.93h-34.48V716.34z
			 M565.7,778.99h13.29c15.09,0,23.25-8.5,23.25-24.91c0-14.28-7.46-23.13-23.01-23.32H565.7V778.99z"/>
		<path class="st0" d="M653.27,775.99l-6.73,17.51h-19.26l31.08-77.16h24.01l32.67,77.16h-20.25l-7.17-17.51H653.27z M682.38,760.98
			c-7.18-17.69-10.68-26.7-12.53-32.59h-0.11c-1.73,5.77-5.82,17.51-11.62,32.59H682.38z"/>
		<path class="st0" d="M736.16,770.38c2.21,6.66,7.54,11.04,20.35,11.04c11.99,0,15.46-3.66,15.46-8.64
			c0-5.32-3.55-8.32-19.81-11.08c-26.78-4.58-31.65-13.28-31.65-23.63c0-15.41,14.83-23.29,33.08-23.29
			c26.48,0,33.67,13.62,34.55,22.58h-18.75c-1.09-3.82-3.66-8.94-16.39-8.94c-8.92,0-13.44,2.84-13.44,7.82
			c0,4.46,3.18,6.7,17.66,9.3c29.32,5.26,33.91,14.11,33.91,25.3c0,13.38-10.5,24.18-36.38,24.18c-24.14,0-35.01-10.77-37.35-24.67
			H736.16z"/>
		<path class="st0" d="M806.84,716.34h18.73v29.01h35.51v-29.01h18.73v77.16h-18.73v-33.24h-35.51v33.24h-18.73V716.34z"/>
	</g>
</g>
</svg>
