<?xml version="1.0" encoding="utf-8"?>
<!-- Generator: Adobe Illustrator 24.3.0, SVG Export Plug-In . SVG Version: 6.00 Build 0)  -->
<svg version="1.1" id="Layer_1" xmlns="http://www.w3.org/2000/svg" xmlns:xlink="http://www.w3.org/1999/xlink" x="0px" y="0px"
	 viewBox="0 0 1280 720" style="enable-background:new 0 0 1280 720;" xml:space="preserve">
<style type="text/css">
	.st0{fill:#FFFFFF;}
	.st1{display:none;}
	.st2{display:inline;opacity:0.57;fill:#FFFFFF;}
</style>
<g>
	<path class="st0" d="M258.95,310.97c-13.4-17.38-30.55-23.36-36.87-23.29c-0.21,0-0.42-0.07-0.63-0.07h-49.12
		c-1.31,0-2.56,0.52-3.48,1.45l-28.69,28.96c-3.06,3.09-0.87,8.34,3.48,8.34h39.41h8.88c19.54,0.24,29.24,4.15,34.87,14.41
		c3.24,5.91,2.91,11.72,2.78,13.53c-1.54,22.02-31.19,35.27-37.18,37.93c-17.42,7.74-33.37,7.17-42.71,6.83
		c-29.29,0-58.58,0-87.87,0c-1.3,0-2.55,0.52-3.47,1.45c-8.36,8.42-16.72,16.83-25.08,25.25c-3.07,3.09-0.88,8.35,3.47,8.35
		c39.89-0.01,79.77-0.01,119.66-0.02c15.92-0.3,54.49-3.37,85.94-31.39c10.81-9.63,27.44-24.44,29.62-48.39
		C274.07,331.21,261.4,314.15,258.95,310.97z"/>
	<path class="st0" d="M173.23,373.73c5.24-2.56,11.89-7.37,11.91-14.74c0.01-4.15-3.25-7.32-4.93-8.96
		c-5.97-5.8-13.74-5.84-15.75-5.78h-42.89c-1.31,0-2.56,0.52-3.48,1.45l-24.11,24.34c-3.03,3.06-0.92,8.27,3.39,8.34l47.35,0.84
		C157.6,379.21,168.58,375.99,173.23,373.73z"/>
</g>
<g>
	<g class="st1">
		<path class="st2" d="M338.24,306.57h43.65c32.54,0,50.34,21.12,50.34,46.59c0,30.91-22.73,49.97-50.84,49.97h-43.15V306.57z
			 M361.67,384.97h16.63c18.89,0,29.1-10.64,29.1-31.17c0-17.86-9.34-28.95-28.8-29.19h-16.93V384.97z"/>
		<path class="st2" d="M549.97,354.52c0,26.76-17.85,50.67-52.97,50.67c-32.75,0-51.45-22.38-51.45-50.57
			c0-26.56,19.81-50.11,52.54-50.11C531.8,304.51,549.97,328.18,549.97,354.52z M470.26,354.33c0,18.26,9.25,32.56,28.07,32.56
			c19.44,0,26.94-16.4,26.94-32.1c0-17.11-8.34-31.98-27.88-31.98C478.59,322.81,470.26,338.05,470.26,354.33z"/>
		<path class="st2" d="M592.55,365.92v37.21h-23.19v-96.56h52.58c22.27,0,35.01,10.99,35.01,27.59c0,12.47-7.25,19.81-16.8,22.84
			c3.95,1.56,14.32,5.35,14.32,22.7v4.82c0,6.62-0.12,14.05,1.22,18.62h-24.05c-1.61-4.25-1.8-9.96-1.8-20.21v-3.17
			c0-9.76-3.58-13.83-17.66-13.83H592.55z M592.55,348.34h24.15c11.38,0,16.31-4.1,16.31-12.24c0-7.63-5.05-11.96-16.1-11.96h-24.35
			V348.34z"/>
		<path class="st2" d="M765.56,366.14c0-16.64,0.12-33.97,0.67-44.67h-0.14c-4.8,17.84-13.88,46.16-25.25,81.65h-20.63
			c-8.84-31.12-19-63.34-24.12-81.64h-0.14c0.72,11.23,1.6,29.99,1.6,46.44v35.19h-21.11v-96.56h33.86
			c9.7,29.9,18.61,56.13,21.49,69.35h0.14c4.09-15.23,12.81-40.6,22.2-69.35h34.01v96.56h-22.59V366.14z"/>
		<path class="st2" d="M813.26,306.57h43.65c32.54,0,50.34,21.12,50.34,46.59c0,30.91-22.73,49.97-50.84,49.97h-43.15V306.57z
			 M836.7,384.97h16.63c18.89,0,29.1-10.64,29.1-31.17c0-17.86-9.34-28.95-28.8-29.19H836.7V384.97z"/>
		<path class="st2" d="M946.27,381.21l-8.43,21.92h-24.1l38.89-96.56h30.05l40.88,96.56h-25.34l-8.97-21.92H946.27z M982.7,362.43
			c-8.99-22.13-13.36-33.41-15.68-40.79h-0.14c-2.16,7.22-7.29,21.91-14.55,40.79H982.7z"/>
		<path class="st2" d="M1049.99,374.2c2.77,8.33,9.44,13.81,25.46,13.81c15.01,0,19.35-4.58,19.35-10.81
			c0-6.66-4.45-10.41-24.8-13.86c-33.51-5.73-39.6-16.61-39.6-29.57c0-19.28,18.56-29.14,41.39-29.14
			c33.14,0,42.14,17.04,43.23,28.26h-23.47c-1.37-4.78-4.58-11.18-20.51-11.18c-11.16,0-16.82,3.55-16.82,9.79
			c0,5.58,3.98,8.39,22.1,11.64c36.69,6.59,42.43,17.66,42.43,31.66c0,16.74-13.13,30.26-45.52,30.26
			c-30.21,0-43.81-13.48-46.74-30.87H1049.99z"/>
		<path class="st2" d="M1138.45,306.57h23.43v36.3h44.44v-36.3h23.43v96.56h-23.43v-41.6h-44.44v41.6h-23.43V306.57z"/>
	</g>
</g>
<g>
	<g>
		<path class="st0" d="M336.54,306.4h43.73c32.6,0,50.43,21.16,50.43,46.67c0,30.97-22.77,50.06-50.93,50.06h-43.23V306.4z
			 M360.01,384.94h16.66c18.92,0,29.15-10.66,29.15-31.23c0-17.9-9.36-29-28.85-29.24h-16.96V384.94z"/>
		<path class="st0" d="M548.66,354.43c0,26.81-17.88,50.76-53.06,50.76c-32.8,0-51.54-22.42-51.54-50.66
			c0-26.61,19.84-50.2,52.63-50.2C530.46,304.34,548.66,328.05,548.66,354.43z M468.8,354.24c0,18.29,9.27,32.62,28.12,32.62
			c19.48,0,26.99-16.43,26.99-32.16c0-17.14-8.35-32.04-27.93-32.04C477.15,322.67,468.8,337.94,468.8,354.24z"/>
		<path class="st0" d="M591.33,365.85v37.28h-23.23V306.4h52.68c22.31,0,35.07,11,35.07,27.63c0,12.49-7.26,19.84-16.83,22.88
			c3.96,1.56,14.34,5.36,14.34,22.74v4.83c0,6.64-0.12,14.08,1.22,18.65h-24.1c-1.62-4.26-1.81-9.98-1.81-20.25v-3.17
			c0-9.78-3.59-13.86-17.69-13.86H591.33z M591.33,348.25h24.19c11.4,0,16.33-4.11,16.33-12.26c0-7.65-5.06-11.98-16.13-11.98
			h-24.39V348.25z"/>
		<path class="st0" d="M764.65,366.08c0-16.67,0.12-34.03,0.67-44.75h-0.14c-4.81,17.87-13.9,46.24-25.29,81.8h-20.67
			c-8.86-31.18-19.03-63.45-24.16-81.78h-0.14c0.72,11.25,1.6,30.04,1.6,46.53v35.26h-21.15V306.4h33.92
			c9.72,29.96,18.64,56.23,21.52,69.47h0.14c4.1-15.26,12.83-40.68,22.24-69.47h34.08v96.73h-22.63V366.08z"/>
		<path class="st0" d="M812.45,306.4h43.73c32.59,0,50.43,21.16,50.43,46.67c0,30.97-22.77,50.06-50.93,50.06h-43.23V306.4z
			 M835.93,384.94h16.66c18.92,0,29.15-10.66,29.15-31.23c0-17.9-9.36-29-28.85-29.24h-16.96V384.94z"/>
		<path class="st0" d="M945.71,381.18l-8.44,21.95h-24.14l38.96-96.73h30.1l40.95,96.73h-25.39l-8.99-21.95H945.71z M982.2,362.36
			c-9-22.17-13.39-33.47-15.7-40.86h-0.14c-2.17,7.24-7.3,21.95-14.57,40.86H982.2z"/>
		<path class="st0" d="M1049.62,374.14c2.77,8.35,9.45,13.83,25.51,13.83c15.03,0,19.38-4.59,19.38-10.83
			c0-6.67-4.46-10.42-24.84-13.88c-33.57-5.74-39.67-16.64-39.67-29.62c0-19.32,18.6-29.19,41.46-29.19
			c33.2,0,42.21,17.07,43.31,28.31h-23.51c-1.37-4.79-4.59-11.2-20.54-11.2c-11.18,0-16.85,3.56-16.85,9.81
			c0,5.59,3.98,8.4,22.14,11.66c36.75,6.6,42.51,17.69,42.51,31.72c0,16.77-13.16,30.32-45.6,30.32c-30.26,0-43.89-13.5-46.83-30.92
			H1049.62z"/>
		<path class="st0" d="M1138.24,306.4h23.48v36.37h44.52V306.4h23.47v96.73h-23.47v-41.67h-44.52v41.67h-23.48V306.4z"/>
	</g>
</g>
</svg>
